# xmcd
#
# Track frame offsets:
#	150
#	19135
#	35172
#	53647
#	70030
#	89865
#	106555
#	120287
#	135532
#	154307
#	170345
#	188820
#	205200
#	225037
#	241727
#	255197
#
# Disc length: 3605 seconds
#
# Revision: 1
# Processed by: cddbd v1.5.2PL0 Copyright (c) Steve Scherf et al.
# Submitted via: audiograbber 1.83.01
#
DISCID=c10e1310
DTITLE=Various Artist - GOYS SING COUNTRY DISC 4
DYEAR=1900
DGENRE=
TTITLE0=CHEAP SEATS
TTITLE1=SUMMERTIME BLUES
TTITLE2=KICK A LITTLE
TTITLE3=SHES NOT THE CHEATIN KIND
TTITLE4=GONE COUNTRY
TTITLE5=BABY LIKES TO ROCK IT
TTITLE6=IF THE DEVIL DANCED IN EMPTY POCKETS
TTITLE7=AINT GOIN DOWN TIL THE SUN COMES UP
TTITLE8=CHEAP SEATS - VOCAL 
TTITLE9=SUMMERTIME BLUES - VOCAL 
TTITLE10=KICK A LITTLE - VOCAL 
TTITLE11=SHES NOT THE CHEATIN KIND - VOCAL
TTITLE12=GOKNE COUNTRY - VOCAL
TTITLE13=BABY LIKES TO ROCK IT - VOCAL 
TTITLE14=IF THE DEVIL DANCED IN EMPTY POCKET - VOCAL
TTITLE15=AINT GOIN DOWN TIL THE SUN COMES UP - VOCAL
EXTD=
EXTT0=
EXTT1=
EXTT2=
EXTT3=
EXTT4=
EXTT5=
EXTT6=
EXTT7=
EXTT8=
EXTT9=
EXTT10=
EXTT11=
EXTT12=
EXTT13=
EXTT14=
EXTT15=
PLAYORDER=
